HIERARCHY
ROOT Hips
{
	OFFSET	0	0	0
	CHANNELS 6  Xposition Yposition Zposition Xrotation Yrotation Zrotation
	JOINT Spine
	{
		OFFSET	0	7.00908	1.40711
		CHANNELS 3  Xrotation Yrotation Zrotation
		JOINT Spine1
		{
			OFFSET	0	11.9997	-2.14281
			CHANNELS 3  Xrotation Yrotation Zrotation
			JOINT Spine2
			{
				OFFSET	0	9.09621	0.974976
				CHANNELS 3  Xrotation Yrotation Zrotation
				JOINT Spine3
				{
					OFFSET	0	10.8855	3.23564
					CHANNELS 3  Xrotation Yrotation Zrotation
					JOINT Spine4
					{
						OFFSET	0	16.1139	-1.64996
						CHANNELS 3  Xrotation Yrotation Zrotation
						JOINT Neck
						{
							OFFSET	0	7.69267	-5.38915
							CHANNELS 3  Xrotation Yrotation Zrotation
							JOINT Head
							{
								OFFSET	0	9.23549	-2.76422
								CHANNELS 3  Xrotation Yrotation Zrotation
								End Site
								{
									OFFSET	0	19.2638	-0.93212
								}
							}
						}
					}
					JOINT LeftShoulder
					{
						OFFSET	-4.62846	19.5852	-9.23549
						CHANNELS 3  Xrotation Yrotation Zrotation
						JOINT LeftArm
						{
							OFFSET	-10.1082	-2.76422	3.54636
							CHANNELS 3  Xrotation Yrotation Zrotation
							JOINT LeftForeArm
							{
								OFFSET	-30.9178	-1.41114	2.20688
								CHANNELS 3  Xrotation Yrotation Zrotation
								JOINT LeftHand
								{
									OFFSET	-25.989	-1.79599	1.85507
									CHANNELS 3  Xrotation Yrotation Zrotation
									End Site
									{
										OFFSET	-9.4847	-0.655447	0.676963
									}
								}
							}
						}
					}
					JOINT RightShoulder
					{
						OFFSET	4.62846	19.5852	-9.23549
						CHANNELS 3  Xrotation Yrotation Zrotation
						JOINT RightArm
						{
							OFFSET	10.1082	-2.76422	3.54636
							CHANNELS 3  Xrotation Yrotation Zrotation
							JOINT RightForeArm
							{
								OFFSET	30.9178	-1.41114	2.20688
								CHANNELS 3  Xrotation Yrotation Zrotation
								JOINT RightHand
								{
									OFFSET	25.989	-1.79599	1.85507
									CHANNELS 3  Xrotation Yrotation Zrotation
									End Site
									{
										OFFSET	9.4847	-0.655447	0.676963
									}
								}
							}
						}
					}
				}
			}
		}
	}
	JOINT LeftUpLeg
	{
		OFFSET	-9.51492	-3.50454	-0.703555
		CHANNELS 3  Xrotation Yrotation Zrotation
		JOINT LeftLeg
		{
			OFFSET	-2.15663	-42.2584	-0.660591
			CHANNELS 3  Xrotation Yrotation Zrotation
			JOINT LeftFoot
			{
				OFFSET	-2.11138	-38.9194	3.34707
				CHANNELS 3  Xrotation Yrotation Zrotation
				JOINT LeftToeBase
				{
					OFFSET	0	-4.8091	-12.773
					CHANNELS 3  Xrotation Yrotation Zrotation
					End Site
					{
						OFFSET	0	-1.92364	-7.69456
					}
				}
			}
		}
	}
	JOINT RightUpLeg
	{
		OFFSET	9.51492	-3.50454	-0.703555
		CHANNELS 3  Xrotation Yrotation Zrotation
		JOINT RightLeg
		{
			OFFSET	2.15663	-42.2584	-0.660591
			CHANNELS 3  Xrotation Yrotation Zrotation
			JOINT RightFoot
			{
				OFFSET	2.11138	-38.9194	3.34707
				CHANNELS 3  Xrotation Yrotation Zrotation
				JOINT RightToeBase
				{
					OFFSET	0	-4.8091	-12.773
					CHANNELS 3  Xrotation Yrotation Zrotation
					End Site
					{
						OFFSET	0	-1.92364	-7.69456
					}
				}
			}
		}
	}
}
MOTION
Frames: 6
Frame Time: 0.020408
 79.385 91.4205 241.549 35.1915 -58.0113 35.257 0.0057567 0.159127 -2.07187 172.87 179.682 176.547 172.53 179.046 176.546 174.105 179.841 177.928 0.263321 -0.00317411 -0.690613 7.33882 5.04664 5.61445 2.26738 0.841844 1.85167 176.332 -175.112 172.612 11.2863 16.552 7.33506 59.3188 -8.38365 10.5258 -0 1.14866 0.828014 171.502 161.255 -161.439 41.2202 -25.9176 -3.45781 25.9259 34.3301 -13.7059 -0 16.4037 -8.1184 148.741 143.065 -165.992 10.8644 -9.77429 -3.87997 5.29873 -1.3049 -2.14805 169.124 180 -180 173.929 -167.741 -168.313 170.936 -167.2 179.741 172.154 179.726 169.032 171.939 180 -180
 79.2893 91.4104 241.14 35.8901 -58.1366 36.2201 0.00554289 0.150083 -2.1151 172.846 179.7 176.475 172.52 179.101 176.474 174.136 179.85 177.885 0.147113 -0.00181033 -0.70503 7.07125 2.95178 5.15458 2.17583 -1.79761 1.53574 175.976 -174.892 171.877 11.0866 17.1375 7.0819 58.9379 -8.196 10.1661 -0 1.18916 1.42378 171.372 160.724 -161.122 42.3767 -25.6555 -3.20147 25.8096 33.6451 -13.3953 -0 17.1194 -7.7741 148.306 143.327 -165.963 11.1821 -9.75841 -3.8125 5.21843 -1.51382 -2.86243 169.176 180 -180 173.724 -167.703 -168.458 171.17 -167.03 179.785 171.598 179.734 168.844 172.036 180 -180
 79.1226 91.3786 241.081 36.6274 -58.9626 37.3018 0.00661222 0.17853 -2.1211 172.9 179.643 176.465 172.577 178.93 176.464 174.16 179.821 177.879 0.189141 -0.00233412 -0.707027 7.1887 1.12211 4.90214 2.20307 -4.36457 1.29903 175.765 -174.72 171.436 10.6931 17.8399 7.16112 58.5679 -8.04436 9.80394 -0 1.39535 1.91808 171.245 160.1 -160.808 43.0076 -25.48 -3.27342 25.6234 33.1043 -13.0883 -0 17.8047 -7.79196 148.221 143.16 -165.691 11.6998 -9.78214 -3.94921 4.96484 -1.42572 -3.00336 169.165 180 -180 174.884 -167.846 -168.556 170.06 -167.211 179.735 171.572 179.798 168.96 172.046 180 -180
 79.1332 91.3761 240.979 37.0205 -59.162 38.2646 0.00600867 0.153981 -2.23468 172.92 179.692 176.275 172.606 179.077 176.275 174.21 179.846 177.765 0.112486 -0.00146249 -0.744889 6.98143 -0.251272 5.10042 2.13945 -6.73179 1.20889 175.629 -174.525 171.146 10.316 18.4382 7.44861 58.2383 -7.98071 9.51842 -0 1.66988 2.37248 171.023 159.668 -160.288 43.5052 -25.2712 -3.32406 25.4073 32.6002 -12.7183 -0 18.512 -7.96692 148.209 143.302 -166.162 12.164 -9.7248 -4.01125 4.99801 -1.17968 -1.76807 169.031 180 -180 175.183 -167.959 -169.041 169.335 -167.252 179.567 171.679 -179.954 169.247 171.863 180 -180
 79.1049 91.3633 240.999 37.4659 -59.7572 38.6566 0.00664768 0.176807 -2.15323 172.949 179.647 176.411 172.649 178.94 176.411 174.256 179.823 177.847 0.0581058 -0.000727926 -0.71774 6.87149 -1.83875 5.02326 2.09694 -9.1116 1.03029 175.258 -174.253 170.368 9.75292 19.0073 7.72827 57.9021 -7.85897 9.16056 -0 2.03566 2.93774 170.879 159.343 -159.948 43.883 -25.0779 -3.50732 25.3037 32.3029 -12.5018 -0 19.4319 -8.30439 148.285 143.269 -166.055 12.1192 -9.69222 -3.77074 4.95528 -1.27131 -2.14126 169.041 180 -180 176.101 -168.275 -168.878 168.298 -167.627 179.556 171.98 -179.819 169.203 171.89 180 -180
 79.0542 91.3563 240.892 37.7599 -59.9724 38.9936 0.00683531 0.180971 -2.16305 172.976 179.639 176.395 172.678 178.916 176.394 174.28 179.819 177.837 0.0503524 -0.000633671 -0.721012 6.91159 -3.37547 4.99953 2.09867 -11.4954 0.872709 174.953 -173.896 169.714 9.14353 19.3461 8.55781 57.5708 -7.6934 8.79954 -0 2.53024 3.49352 170.793 159.206 -159.747 44.076 -25.1303 -3.68883 25.1685 32.2021 -12.4384 -0 20.3996 -8.87041 148.236 143.554 -166.03 12.1842 -9.7626 -3.62869 4.87304 -1.35954 -2.97463 169.104 180 -180 176.412 -168.047 -168.943 168.189 -168.205 179.941 171.796 -179.602 168.896 172.004 180 -180
